<svg xmlns="http://www.w3.org/2000/svg" viewBox="0 0 630.35 244"><defs><style>.a{fill:#222;}</style></defs><title>moodtunes</title><path class="a" d="M48.16,85.48c3.1-10,11.5-17.34,21.14-17.44C81.62,68,91.83,80,91.71,93.93v40.46l.12,1.36H89.47l-.13-1.24-.12-40.58c0-13.07-8.72-23.28-19.92-23.4-11,0-19.8,10.2-19.92,23.15v40.71l.13,1.36H47.14L47,134.51,46.9,95.17h0V93.93c0-13.07-8.71-23.28-19.91-23.4S7.06,80.86,7.06,93.93v41.7H4.57V68H7.06V82.25C10.81,73.93,18.4,68.12,27,68,36.71,68,45.12,75.48,48.16,85.48Z" transform="translate(-3.07 -3)"/><path class="a" d="M93.47,137.25H88.11l-.27-2.74-.12-40.58c0-12.17-8.1-21.79-18.44-21.9S51,81.54,50.88,93.69v40.63l.27,2.93H45.79l-.27-2.74-.13-40.58C45.39,81.76,37.3,72.14,27,72s-18.4,9.62-18.4,21.9v43.2H3.07V66.54H8.56V76.69C13.08,70.46,19.87,66.61,27,66.54c9,0,17.1,5.78,21.21,14.74,4.12-8.87,12.22-14.65,21.12-14.74a22.2,22.2,0,0,1,15.77,6.89,28.85,28.85,0,0,1,8.15,20.51v40.38ZM6.07,88.1v.29c0-.17.07-.35.1-.52Z" transform="translate(-3.07 -3)"/><path class="a" d="M106,101.77c0-18.42,13.69-33.61,29.87-33.73,16.43,0,30,15.43,29.88,33.73,0,18.55-13.32,34-29.88,33.86S106,120.32,106,101.77Zm2.49,0c0,17.55,12.2,31.5,27.38,31.37s27.51-13.69,27.39-31.37c0-17.43-12.08-31.12-27.39-31.24S108.51,84.34,108.51,101.77Z" transform="translate(-3.07 -3)"/><path class="a" d="M136.09,137.13h-.21c-17.29,0-31.36-15.86-31.36-35.36,0-19,14.36-35.1,31.36-35.23A29.45,29.45,0,0,1,156.8,75.6a36.9,36.9,0,0,1,10.47,26.18,37.58,37.58,0,0,1-10.7,26.61A29,29,0,0,1,136.09,137.13ZM135.88,72C121.38,72,110,85.09,110,101.77c0,8.81,3.27,17.11,9,22.76a23.72,23.72,0,0,0,16.9,7.11,24.18,24.18,0,0,0,17.23-7.33c5.57-5.61,8.73-13.82,8.67-22.53C161.78,85.21,150.4,72.14,135.88,72Z" transform="translate(-3.07 -3)"/><path class="a" d="M180.08,101.77c0-18.42,13.69-33.61,29.87-33.73,16.44,0,30,15.43,29.88,33.73,0,18.55-13.32,34-29.88,33.86S180.08,120.32,180.08,101.77Zm2.49,0c0,17.55,12.2,31.5,27.38,31.37s27.51-13.69,27.39-31.37c0-17.43-12.07-31.12-27.39-31.24S182.57,84.34,182.57,101.77Z" transform="translate(-3.07 -3)"/><path class="a" d="M210.15,137.13h-.21c-17.29,0-31.36-15.86-31.36-35.36,0-19,14.36-35.1,31.36-35.23a29.47,29.47,0,0,1,20.93,9.06,36.94,36.94,0,0,1,10.46,26.18,37.58,37.58,0,0,1-10.7,26.61A29,29,0,0,1,210.15,137.13ZM209.94,72c-14.5,0-25.87,13.06-25.87,29.74,0,8.81,3.27,17.1,9,22.76a23.72,23.72,0,0,0,16.9,7.11,24.22,24.22,0,0,0,17.24-7.33c5.56-5.61,8.72-13.82,8.66-22.53C235.84,85.21,224.46,72.14,209.94,72Z" transform="translate(-3.07 -3)"/><path class="a" d="M254.14,101.77c0-18.42,13.69-33.61,29.88-33.73,12.15,0,22.75,8.45,27.38,20.26V41.15l2.1.35.39.89v93.24H311.4V115.3c-4.6,12-15.1,20.42-27.38,20.33C267.58,135.63,254.14,120.32,254.14,101.77Zm2.49,0c0,17.55,12.2,31.5,27.39,31.37s27.26-13.42,27.38-30.83v-.54c0-17.43-12.07-31.12-27.38-31.24S256.63,84.34,256.63,101.77Z" transform="translate(-3.07 -3)"/><path class="a" d="M284.21,137.13H284c-17.29,0-31.36-15.86-31.36-35.36,0-19,14.36-35.1,31.36-35.23,10.45,0,20.08,5.87,25.9,15.37V39.38l4.65.77.84,1.93v95.05H309.9V121.77C304.14,131.28,294.59,137.13,284.21,137.13ZM284,72c-14.5,0-25.87,13.06-25.87,29.74,0,8.81,3.27,17.11,9,22.76a23.72,23.72,0,0,0,16.9,7.11c14.41,0,25.78-12.89,25.9-29.34v-.53C309.9,85.21,298.53,72.14,284,72Zm28.39,36.25-.09.5.09-.22Zm-.2-13.87c.07.37.14.74.2,1.11v-.59Z" transform="translate(-3.07 -3)"/><path class="a" d="M334.55,71.27V118c.12,10.09,6,15.19,17.3,15.19h1.25v2.49h-1.25c-12.32,0-19.67-6.35-19.79-17.68V71.27h-9.71V68.78h9.71V53h2.49V68.78h15.19v2.49H334.55Z" transform="translate(-3.07 -3)"/><path class="a" d="M354.6,137.13h-2.75c-13.2,0-21.16-7.16-21.29-19.16V72.77h-9.71V67.28h9.71V51.47h5.49V67.28h15.19v5.49H336.05V118c.11,9.21,5.28,13.69,15.8,13.69h2.75Z" transform="translate(-3.07 -3)"/><path class="a" d="M369.9,69.28V68.16h2.74l-.13,1.25-.12,41.7c0,12.32,10.58,22.16,23.65,22s23.78-9.58,23.65-22V68.16h2.74l-.13,1.25-.12,41.7c0,13.32-11.83,24.64-26.14,24.52s-26-11.08-26.14-24.52Z" transform="translate(-3.07 -3)"/><path class="a" d="M396.27,137.13H396c-15.1,0-27.5-11.67-27.63-26V66.66h5.89L374,69.48l-.12,41.63a19.8,19.8,0,0,0,6,14.13,22.42,22.42,0,0,0,15.93,6.4H396a23.22,23.22,0,0,0,16.49-6.59,19.4,19.4,0,0,0,5.68-13.93V66.66h5.9l-.29,2.82-.12,41.63A25.21,25.21,0,0,1,416,129,28.2,28.2,0,0,1,396.27,137.13Z" transform="translate(-3.07 -3)"/><path class="a" d="M444,84.48c4.25-9.61,13.42-16.35,23.65-16.44C481.8,68,493.88,81,493.75,96.29v38.1l.13,1.36h-2.37l-.12-1.24-.13-38.22c0-14.44-10.33-25.64-23.65-25.76S444,81.85,444,96.29v39.34h-2.49V68H444V84.48Z" transform="translate(-3.07 -3)"/><path class="a" d="M495.52,137.25h-5.36l-.27-2.74-.13-38.21c0-13.5-9.73-24.16-22.16-24.27s-22.14,10.66-22.14,24.26v40.84H440V66.54h5.49V78.75A27.51,27.51,0,0,1,467.6,66.54a26.51,26.51,0,0,1,18.86,8.15,30.5,30.5,0,0,1,8.79,21.62v38ZM443,90.43v.26l.09-.46Z" transform="translate(-3.07 -3)"/><path class="a" d="M508.1,103.14h0v-2.49h0c.6-18.09,14-32.49,29.86-32.61,16.43,0,29.88,15.31,29.88,33.86v1.24H510.58c.67,17,14.89,32.07,29.35,30,15.19-2.12,20.54-6.6,23.28-15.68l.37-.88h2.49l-.37,1.62c-3,9.84-9.46,15.44-25.52,17.43C524.36,137.82,508.89,121.33,508.1,103.14Zm2.48-2.49h54.75c0-16.31-12.08-30-27.39-30.12C523.11,70.53,511.25,83.69,510.58,100.65Z" transform="translate(-3.07 -3)"/><path class="a" d="M537.33,137.33c-5.9,0-11.9-2.33-17.17-6.72a38.46,38.46,0,0,1-13.47-26h-.13V99.15h.1c1.27-18,15-32.49,31.27-32.61,17.31,0,31.39,15.86,31.39,35.36v2.74H512.18a32.37,32.37,0,0,0,11.26,21.74c5,4.19,10.8,6.06,16.28,5.28,15.48-2.16,19.7-6.81,22-14.64l.06-.16.77-1.78H568l-.83,3.56c-3.39,11.19-11.15,16.54-26.76,18.48A22.08,22.08,0,0,1,537.33,137.33ZM512.18,99.15h51.61c-.71-15-12-27-25.86-27.12C524.53,72,513.46,83.82,512.18,99.15Z" transform="translate(-3.07 -3)"/><path class="a" d="M629.43,85.46v1.25h-2.49V85.46c0-8.34-8.47-14.81-19.92-14.93s-19.79,6.72-19.91,14.93c0,16.31,44.93,13.7,44.81,32.74,0,9.59-11.33,17.55-24.9,17.43s-24.89-7.84-24.89-17.43V117h2.49v1.24c0,8.34,9.83,15.07,22.4,14.94s22.53-6.47,22.41-14.94c0-16.43-44.69-13.57-44.81-32.74,0-9.58,10.45-17.3,22.4-17.42S629.43,75.88,629.43,85.46Z" transform="translate(-3.07 -3)"/><path class="a" d="M607.33,137.13H607c-14.54,0-26.38-8.49-26.38-18.93v-2.74h5.49v2.74a10.45,10.45,0,0,0,3.39,7.43c3.82,3.78,10.22,6,17.18,6H607c7.34,0,14-2.29,17.75-6.13a10.11,10.11,0,0,0,3.17-7.29c0-6.84-9.74-10.08-20.06-13.51-12.13-4-24.68-8.21-24.75-19.24,0-10.31,10.71-18.8,23.89-18.93,13,0,23.92,8.66,23.92,18.92v2.75h-5.49V85.46c0-7.54-7.93-13.32-18.43-13.43-10.2,0-18.29,5.91-18.4,13.46,0,6.73,9.76,10,20.1,13.45,12.18,4.08,24.78,8.29,24.71,19.27a15.61,15.61,0,0,1-5,11.11C623.44,134.22,615.59,137.13,607.33,137.13Z" transform="translate(-3.07 -3)"/><path class="a" d="M328.5,247c-21.12,0-35.69-5.28-43.3-15.7-7.41-10.14-8.08-25-2-44.11A64.49,64.49,0,0,1,291.84,170c1.61-2.31,4.16-6.71,3.21-10.16-.5-1.82-2-3.25-4.46-4.38-10.23-4.63-10-15.58-8.49-20.72l4.8,1.44c-.13.43-3,10.75,5.75,14.72,3.89,1.76,6.32,4.32,7.22,7.61,1.42,5.15-1.35,10.64-3.93,14.35A59.43,59.43,0,0,0,288,188.71c-5.59,17.52-5.17,30.86,1.24,39.64,6.62,9.06,19.83,13.65,39.27,13.65,19.24,0,31.5-6.44,36.44-19.15,7-17.95-2.91-41.81-9.13-47.51-7.71-7.07-8.24-17.1-4.31-22.34,1.39-1.85,3.43-2.57,5.23-3.21,3.57-1.26,7.27-2.57,7.27-14.29h5c0,14.08-5.24,17.11-10.61,19a6.51,6.51,0,0,0-2.89,1.5c-2.29,3.05-2.28,10.19,3.69,15.66,7.85,7.2,18,33.44,10.41,53C365.63,234.85,355.29,247,328.5,247Z" transform="translate(-3.07 -3)"/><polygon class="a" points="330.75 39.43 326.11 37.57 331.93 23.02 331.93 5 306.93 5 306.93 22.12 311.82 37.75 307.04 39.25 301.93 22.88 301.93 0 336.93 0 336.93 23.98 330.75 39.43"/></svg>