<?xml version="1.0" encoding="utf-8"?>
<!-- Generator: Adobe Illustrator 22.0.1, SVG Export Plug-In . SVG Version: 6.00 Build 0)  -->
<svg version="1.1" xmlns="http://www.w3.org/2000/svg" xmlns:xlink="http://www.w3.org/1999/xlink" x="0px" y="0px"
	 viewBox="0 0 636 248" style="enable-background:new 0 0 636 248;" xml:space="preserve">
<style type="text/css">
	.st0{display:none;}
	.st1{display:inline;}
	.st2{stroke:#000000;stroke-width:3;stroke-miterlimit:10;}
	.st3{fill:#222222;stroke:#222222;stroke-width:3;stroke-miterlimit:10;}
</style>
<g id="Layer_1" class="st0">
	<g class="st1">
		<path class="st2" d="M62.2,33.5c3.1-10,11.5-17.3,21.1-17.4c12.3,0,22.5,12,22.4,25.9v40.5l0.1,1.4h-2.4l-0.1-1.2l-0.1-40.6
			c0-13.1-8.7-23.3-19.9-23.4c-11,0-19.8,10.2-19.9,23.2c0,0.1,0,0.2,0,0.3v1.2v39.2l0.1,1.4h-2.4L61,82.5l-0.1-39.3h0v-1.2
			c0-13.1-8.7-23.3-19.9-23.4c-11.1,0-19.9,10.3-19.9,23.4v1.2v39.2v1.2h-2.5v-1.2V43.2v-1.2V17.3V16h2.5v1.2v13
			C24.8,21.9,32.4,16.1,41,16C50.7,16,59.1,23.5,62.2,33.5z"/>
		<path class="st2" d="M120,49.8c0-18.4,13.7-33.6,29.9-33.7c16.4,0,30,15.4,29.9,33.7c0,18.5-13.3,34-29.9,33.9
			C133.5,83.6,120,68.3,120,49.8z M122.5,49.8c0,17.6,12.2,31.5,27.4,31.4c15.3,0,27.5-13.7,27.4-31.4c0-17.4-12.1-31.1-27.4-31.2
			C134.7,18.5,122.5,32.3,122.5,49.8z"/>
		<path class="st2" d="M194.1,49.8c0-18.4,13.7-33.6,29.9-33.7c16.4,0,30,15.4,29.9,33.7c0,18.5-13.3,34-29.9,33.9
			C207.5,83.6,194.1,68.3,194.1,49.8z M196.6,49.8c0,17.6,12.2,31.5,27.4,31.4c15.3,0,27.5-13.7,27.4-31.4
			c0-17.4-12.1-31.1-27.4-31.2C208.8,18.5,196.6,32.3,196.6,49.8z"/>
		<path class="st2" d="M268.1,49.8c0-18.4,13.7-33.6,29.9-33.7c12.2,0,22.8,8.5,27.4,20.3V-9.6v-1.2h2.5v1.2v58.9c0,0.2,0,0.3,0,0.5
			v32.6v1.2h-2.5v-1.2V63.3c-4.6,12-15.1,20.4-27.4,20.3C281.6,83.6,268.1,68.3,268.1,49.8z M270.6,49.8c0,17.6,12.2,31.5,27.4,31.4
			c15.2,0,27.3-13.4,27.4-30.8v-0.5c0-17.4-12.1-31.1-27.4-31.2C282.8,18.5,270.6,32.3,270.6,49.8z"/>
		<path class="st2" d="M348.5,19.3V66c0.1,10.1,6,15.2,17.3,15.2h1.2v2.5h-1.2c-12.3,0-19.7-6.3-19.8-17.7V19.3h-8.5h-1.2v-2.5h1.2
			h8.5V2.2V1h2.5v1.2v14.6h13.9h1.2v2.5h-1.2H348.5z"/>
		<path class="st2" d="M383.9,17.3v-1.1h2.7l-0.1,1.2l-0.1,41.7c0,12.3,10.6,22.2,23.7,22c13.2,0,23.8-9.6,23.7-22V17.3v-1.1h2.7
			l-0.1,1.2l-0.1,41.7c0,13.3-11.8,24.6-26.1,24.5c-14.2,0-26-11.1-26.1-24.5V17.3z"/>
		<path class="st2" d="M458,32.5c4.2-9.6,13.4-16.3,23.7-16.4c14.2,0,26.3,12.9,26.1,28.3v38.1l0.1,1.4h-2.4l-0.1-1.2l-0.1-38.2
			c0-14.4-10.3-25.6-23.7-25.8c-13.2,0-23.7,11.3-23.7,25.8v1.2v36.8v1.2h-2.5v-1.2V45.5v-1.2v-27V16h2.5v1.2V32.5z"/>
		<path class="st2" d="M522.1,51.1L522.1,51.1l0-1.2v-1.2h0c0.6-18.1,14-32.5,29.9-32.6c16.4,0,29.9,15.3,29.9,33.9v1.2h-1.2h-56
			c0.7,17,14.9,32.1,29.4,30c15.2-2.1,20.5-6.6,23.3-15.7l0.4-0.9h2.5l-0.4,1.6c-3,9.8-9.5,15.4-25.5,17.4
			C538.4,85.8,522.9,69.3,522.1,51.1z M524.6,48.7h54.7c0-16.3-12.1-30-27.4-30.1C537.1,18.5,525.3,31.7,524.6,48.7z"/>
		<path class="st2" d="M643.4,33.5v1.2h-2.5v-1.2c0-8.3-8.5-14.8-19.9-14.9c-11.3,0-19.8,6.7-19.9,14.9c0,16.3,44.9,13.7,44.8,32.7
			c0,9.6-11.3,17.6-24.9,17.4c-13.4,0-24.9-7.8-24.9-17.4V65h2.5v1.2c0,8.3,9.8,15.1,22.4,14.9c12.7,0,22.5-6.5,22.4-14.9
			c0-16.4-44.7-13.6-44.8-32.7c0-9.6,10.5-17.3,22.4-17.4C633.1,16,643.4,23.9,643.4,33.5z"/>
	</g>
</g>
<g id="Layer_2">
	<g>
		<g>
			<g>
				<path class="st3" d="M48.2,85.5c3.1-10,11.5-17.3,21.1-17.4c12.3,0,22.5,12,22.4,25.9v40.5l0.1,1.4h-2.4l-0.1-1.2l-0.1-40.6
					c0-13.1-8.7-23.3-19.9-23.4c-11,0-19.8,10.2-19.9,23.2c0,0.1,0,0.2,0,0.3v1.2v39.2l0.1,1.4h-2.4l-0.1-1.2l-0.1-39.3h0v-1.2
					c0-13.1-8.7-23.3-19.9-23.4c-11.1,0-19.9,10.3-19.9,23.4v1.2v39.2v1.2H4.6v-1.2V95.2v-1.2V69.3V68h2.5v1.2v13
					C10.8,73.9,18.4,68.1,27,68C36.7,68,45.1,75.5,48.2,85.5z"/>
				<path class="st3" d="M93.5,137.3h-5.4l-0.3-2.7l-0.1-40.6c0-12.2-8.1-21.8-18.4-21.9C59.1,72,51,81.5,50.9,93.7l0,1.5v39.1
					l0.3,2.9h-5.4l-0.3-2.7l-0.1-40.6c0-12.2-8.1-21.8-18.4-21.9C16.6,72,8.6,81.6,8.6,93.9v43.2H3.1V66.5h5.5v10.1
					c4.5-6.2,11.3-10.1,18.4-10.1c9,0,17.1,5.8,21.2,14.7c4.1-8.9,12.2-14.7,21.1-14.7c5.8,0,11.4,2.4,15.8,6.9
					c5.2,5.3,8.2,12.8,8.1,20.5v40.4L93.5,137.3z M6.1,88.1v0.3c0-0.2,0.1-0.3,0.1-0.5L6.1,88.1z"/>
			</g>
			<g>
				<path class="st3" d="M106,101.8c0-18.4,13.7-33.6,29.9-33.7c16.4,0,30,15.4,29.9,33.7c0,18.5-13.3,34-29.9,33.9
					C119.5,135.6,106,120.3,106,101.8z M108.5,101.8c0,17.6,12.2,31.5,27.4,31.4c15.3,0,27.5-13.7,27.4-31.4
					c0-17.4-12.1-31.1-27.4-31.2C120.7,70.5,108.5,84.3,108.5,101.8z"/>
				<path class="st3" d="M136.1,137.1c-0.1,0-0.1,0-0.2,0c-17.3,0-31.4-15.9-31.4-35.4c0-19,14.4-35.1,31.4-35.2
					c7.7,0,15.1,3.2,20.9,9.1c6.7,6.8,10.5,16.3,10.5,26.2c0,10.2-3.9,19.9-10.7,26.6C150.9,134,143.6,137.1,136.1,137.1z M135.9,72
					c-14.5,0-25.9,13.1-25.9,29.7c0,8.8,3.3,17.1,9,22.8c4.7,4.6,10.7,7.2,16.9,7.1c6.4,0,12.5-2.6,17.2-7.3
					c5.6-5.6,8.7-13.8,8.7-22.5C161.8,85.2,150.4,72.1,135.9,72z"/>
			</g>
			<g>
				<path class="st3" d="M180.1,101.8c0-18.4,13.7-33.6,29.9-33.7c16.4,0,30,15.4,29.9,33.7c0,18.5-13.3,34-29.9,33.9
					C193.5,135.6,180.1,120.3,180.1,101.8z M182.6,101.8c0,17.6,12.2,31.5,27.4,31.4c15.3,0,27.5-13.7,27.4-31.4
					c0-17.4-12.1-31.1-27.4-31.2C194.8,70.5,182.6,84.3,182.6,101.8z"/>
				<path class="st3" d="M210.1,137.1c-0.1,0-0.1,0-0.2,0c-17.3,0-31.4-15.9-31.4-35.4c0-19,14.4-35.1,31.4-35.2
					c7.7,0,15.1,3.2,20.9,9.1c6.7,6.8,10.5,16.3,10.5,26.2c0,10.2-3.9,19.9-10.7,26.6C224.9,134,217.7,137.1,210.1,137.1z M209.9,72
					c-14.5,0-25.9,13.1-25.9,29.7c0,8.8,3.3,17.1,9,22.8c4.7,4.6,10.7,7.2,16.9,7.1c6.4,0,12.5-2.6,17.2-7.3
					c5.6-5.6,8.7-13.8,8.7-22.5C235.8,85.2,224.5,72.1,209.9,72z"/>
			</g>
			<g>
				<path class="st3" d="M254.1,101.8c0-18.4,13.7-33.6,29.9-33.7c12.2,0,22.8,8.5,27.4,20.3V42.4v-1.2l2.1,0.4l0.4,0.9v58.9
					c0,0.2,0,0.3,0,0.5v32.6v1.2h-2.5v-1.2v-19.1c-4.6,12-15.1,20.4-27.4,20.3C267.6,135.6,254.1,120.3,254.1,101.8z M256.6,101.8
					c0,17.6,12.2,31.5,27.4,31.4c15.2,0,27.3-13.4,27.4-30.8v-0.5c0-17.4-12.1-31.1-27.4-31.2C268.8,70.5,256.6,84.3,256.6,101.8z"
					/>
				<path class="st3" d="M284.2,137.1c-0.1,0-0.1,0-0.2,0c-17.3,0-31.4-15.9-31.4-35.4c0-19,14.4-35.1,31.4-35.2
					c10.4,0,20.1,5.9,25.9,15.4V39.4l4.6,0.8l0.8,1.9v95.1h-5.5v-15.4C304.1,131.3,294.6,137.1,284.2,137.1z M284,72
					c-14.5,0-25.9,13.1-25.9,29.7c0,8.8,3.3,17.1,9,22.8c4.7,4.6,10.7,7.2,16.9,7.1c14.4,0,25.8-12.9,25.9-29.3v-0.5
					C309.9,85.2,298.5,72.1,284,72z M312.4,108.3c0,0.2-0.1,0.3-0.1,0.5l0.1-0.2V108.3z M312.2,94.4c0.1,0.4,0.1,0.7,0.2,1.1v-0.6
					L312.2,94.4z"/>
			</g>
			<g>
				<path class="st3" d="M334.5,71.3V118c0.1,10.1,6,15.2,17.3,15.2h1.2v2.5h-1.2c-12.3,0-19.7-6.3-19.8-17.7V71.3h-8.5h-1.2v-2.5
					h1.2h8.5V54.2V53h2.5v1.2v14.6h13.9h1.2v2.5h-1.2H334.5z"/>
				<path class="st3" d="M354.6,137.1h-2.7c-13.2,0-21.2-7.2-21.3-19.2V72.8h-9.7v-5.5h9.7V51.5h5.5v15.8h15.2v5.5H336V118
					c0.1,9.2,5.3,13.7,15.8,13.7h2.7V137.1z"/>
			</g>
			<g>
				<path class="st3" d="M369.9,69.3v-1.1h2.7l-0.1,1.2l-0.1,41.7c0,12.3,10.6,22.2,23.7,22c13.2,0,23.8-9.6,23.7-22V69.3v-1.1h2.7
					l-0.1,1.2l-0.1,41.7c0,13.3-11.8,24.6-26.1,24.5c-14.2,0-26-11.1-26.1-24.5V69.3z"/>
				<path class="st3" d="M396.3,137.1c-0.1,0-0.2,0-0.2,0c-15.1,0-27.5-11.7-27.6-26V66.7h5.9l-0.3,2.8l-0.1,41.6
					c0,5.3,2.1,10.3,6,14.1c4.2,4.1,9.8,6.4,15.9,6.4c0.1,0,0.2,0,0.2,0c6.3,0,12.3-2.4,16.5-6.6c3.7-3.8,5.7-8.7,5.7-13.9V66.7h5.9
					l-0.3,2.8l-0.1,41.6c0,6.6-2.7,13-7.7,17.9C410.8,134.2,403.6,137.1,396.3,137.1z"/>
			</g>
			<g>
				<path class="st3" d="M444,84.5c4.2-9.6,13.4-16.3,23.7-16.4c14.2,0,26.3,12.9,26.1,28.3v38.1l0.1,1.4h-2.4l-0.1-1.2l-0.1-38.2
					c0-14.4-10.3-25.6-23.7-25.8c-13.2,0-23.7,11.3-23.7,25.8v1.2v36.8v1.2h-2.5v-1.2V97.5v-1.2v-27V68h2.5v1.2V84.5z"/>
				<path class="st3" d="M495.5,137.3h-5.4l-0.3-2.7l-0.1-38.2c0-13.5-9.7-24.2-22.2-24.3c-12.4,0-22.1,10.7-22.1,24.3v40.8H440
					V66.5h5.5v12.2c5.2-7.5,13.4-12.1,22.1-12.2c7,0,13.7,2.9,18.9,8.1c5.7,5.7,8.9,13.6,8.8,21.6v38L495.5,137.3z M443,90.4v0.3
					c0-0.2,0.1-0.3,0.1-0.5L443,90.4z"/>
			</g>
			<g>
				<path class="st3" d="M508.1,103.1L508.1,103.1l0-1.2v-1.2h0c0.6-18.1,14-32.5,29.9-32.6c16.4,0,29.9,15.3,29.9,33.9v1.2h-1.2
					h-56c0.7,17,14.9,32.1,29.4,30c15.2-2.1,20.5-6.6,23.3-15.7l0.4-0.9h2.5l-0.4,1.6c-3,9.8-9.5,15.4-25.5,17.4
					C524.4,137.8,508.9,121.3,508.1,103.1z M510.6,100.7h54.7c0-16.3-12.1-30-27.4-30.1C523.1,70.5,511.3,83.7,510.6,100.7z"/>
				<path class="st3" d="M537.3,137.3c-5.9,0-11.9-2.3-17.2-6.7c-7.7-6.4-12.6-16-13.5-26h-0.1v-5.5h0.1c1.3-18,15-32.5,31.3-32.6
					c17.3,0,31.4,15.9,31.4,35.4v2.7h-57.1c0.8,8.4,4.9,16.4,11.3,21.7c5,4.2,10.8,6.1,16.3,5.3c15.5-2.2,19.7-6.8,22.1-14.6
					l0.1-0.2l0.8-1.8h5.4l-0.8,3.6c-3.4,11.2-11.2,16.5-26.8,18.5C539.4,137.3,538.3,137.3,537.3,137.3z M512.2,99.2h51.6
					c-0.7-15-12-27-25.9-27.1C524.5,72,513.5,83.8,512.2,99.2z"/>
			</g>
			<g>
				<path class="st3" d="M629.4,85.5v1.2h-2.5v-1.2c0-8.3-8.5-14.8-19.9-14.9c-11.3,0-19.8,6.7-19.9,14.9
					c0,16.3,44.9,13.7,44.8,32.7c0,9.6-11.3,17.6-24.9,17.4c-13.4,0-24.9-7.8-24.9-17.4V117h2.5v1.2c0,8.3,9.8,15.1,22.4,14.9
					c12.7,0,22.5-6.5,22.4-14.9c0-16.4-44.7-13.6-44.8-32.7c0-9.6,10.5-17.3,22.4-17.4C619.1,68,629.4,75.9,629.4,85.5z"/>
				<path class="st3" d="M607.3,137.1c-0.1,0-0.2,0-0.3,0c-14.5,0-26.4-8.5-26.4-18.9v-2.7h5.5v2.7c0,2.7,1.2,5.2,3.4,7.4
					c3.8,3.8,10.2,6,17.2,6c0.1,0,0.2,0,0.3,0c7.3,0,14-2.3,17.8-6.1c2.1-2.1,3.2-4.7,3.2-7.3c0-6.8-9.7-10.1-20.1-13.5
					c-12.1-4-24.7-8.2-24.8-19.2c0-10.3,10.7-18.8,23.9-18.9c13,0,23.9,8.7,23.9,18.9v2.7h-5.5v-2.7c0-7.5-7.9-13.3-18.4-13.4
					c-10.2,0-18.3,5.9-18.4,13.5c0,6.7,9.8,10,20.1,13.5c12.2,4.1,24.8,8.3,24.7,19.3c0,4-1.7,7.8-5,11.1
					C623.4,134.2,615.6,137.1,607.3,137.1z"/>
			</g>
		</g>
		<g>
			<path class="st3" d="M328.5,247c-21.1,0-35.7-5.3-43.3-15.7c-7.4-10.1-8.1-25-2-44.1c1.9-5.8,4.8-11.6,8.6-17.1
				c1.6-2.3,4.2-6.7,3.2-10.2c-0.5-1.8-2-3.3-4.5-4.4c-10.2-4.6-10-15.6-8.5-20.7l4.8,1.4c-0.1,0.4-3,10.8,5.8,14.7
				c3.9,1.8,6.3,4.3,7.2,7.6c1.4,5.1-1.4,10.6-3.9,14.3c-3.6,5.1-6.2,10.4-8,15.8c-5.6,17.5-5.2,30.9,1.2,39.6
				c6.6,9.1,19.8,13.7,39.3,13.7c19.2,0,31.5-6.4,36.4-19.1c7-18-2.9-41.8-9.1-47.5c-7.7-7.1-8.2-17.1-4.3-22.3
				c1.4-1.9,3.4-2.6,5.2-3.2c3.6-1.3,7.3-2.6,7.3-14.3h5c0,14.1-5.2,17.1-10.6,19c-1.3,0.5-2.4,0.9-2.9,1.5
				c-2.3,3-2.3,10.2,3.7,15.7c7.9,7.2,18,33.4,10.4,53C365.6,234.9,355.3,247,328.5,247z"/>
		</g>
		<g>
			<polygon class="st3" points="333.8,42.4 329.2,40.6 335,26 335,8 310,8 310,25.1 314.9,40.8 310.1,42.2 305,25.9 305,3 340,3 
				340,27 			"/>
		</g>
	</g>
</g>
</svg>
